<?xml version="1.0" encoding="UTF-8" standalone="no"?>
<!-- Created with Inkscape (http://www.inkscape.org/) -->
<svg
   xmlns:svg="http://www.w3.org/2000/svg"
   xmlns="http://www.w3.org/2000/svg"
   xmlns:xlink="http://www.w3.org/1999/xlink"
   version="1.0"
   x="0.0000000"
   y="0.0000000"
   width="40.000000"
   height="40.000000"
   id="svg2">
  <defs
     id="defs3">
    <linearGradient
       id="linearGradient2051">
      <stop
         style="stop-color:#c51d00;stop-opacity:1.0000000"
         offset="0.0000000"
         id="stop2053" />
      <stop
         style="stop-color:#ffeab7;stop-opacity:1.0000000"
         offset="1.0000000"
         id="stop2055" />
    </linearGradient>
    <linearGradient
       x1="3.1518662"
       y1="20.531010"
       x2="36.713509"
       y2="20.531010"
       id="linearGradient2057"
       xlink:href="#linearGradient2051"
       gradientUnits="userSpaceOnUse"
       gradientTransform="matrix(1.037623,0.000000,0.000000,1.022829,-1.381273,-0.879080)" />
  </defs>
  <g
     id="layer1">
    <path
       d="M 19.333474,22.493112 C 13.301912,16.435328 10.777956,9.8445717 10.798245,7.0659511 C 10.808749,5.6274664 11.481064,3.5928206 14.781352,2.5428043 C 18.081639,1.4927882 25.820246,2.0581815 30.941383,2.8658864 C 33.942955,3.3392935 37.541960,3.1081978 36.176324,5.5313120 C 34.810689,7.9544264 22.861368,6.4197872 20.357701,7.3082625 C 17.854034,8.1967377 17.057414,10.458311 18.081639,11.992950 C 19.105868,13.527590 22.861368,16.435328 25.478839,15.062230 C 28.096308,13.689131 31.282792,12.154491 32.079414,13.204507 C 32.876038,14.254524 29.689551,14.900688 27.641096,16.354556 C 25.592642,17.808425 23.999398,19.100753 24.340809,21.281556 C 24.682216,23.462359 32.648430,26.612407 27.299688,32.750964 C 21.950944,38.889519 19.788685,37.354881 14.553746,37.354881 C 9.3188053,37.354881 8.6359877,38.647210 6.1323201,38.162586 C 3.6286533,37.677963 -0.013044209,34.447144 3.7424566,35.174079 C 7.4979568,35.901013 9.6602154,35.335619 13.301912,34.527914 C 16.943609,33.720209 21.837141,35.820242 22.292352,31.377866 C 22.747565,26.935489 22.633762,26.047013 19.333474,22.493112 z "
       style="fill:url(#linearGradient2057);fill-opacity:1.0000000;fill-rule:evenodd;stroke:#000000;stroke-width:0.37964377pt;stroke-linecap:butt;stroke-linejoin:miter;stroke-opacity:1.0000000"
       id="path1305" />
  </g>
</svg>
