<?xml version="1.0" encoding="UTF-8" standalone="no"?>
<!-- Created with Inkscape (http://www.inkscape.org/) -->
<svg
   xmlns:dc="http://purl.org/dc/elements/1.1/"
   xmlns:cc="http://web.resource.org/cc/"
   xmlns:rdf="http://www.w3.org/1999/02/22-rdf-syntax-ns#"
   xmlns:svg="http://www.w3.org/2000/svg"
   xmlns="http://www.w3.org/2000/svg"
   xmlns:sodipodi="http://inkscape.sourceforge.net/DTD/sodipodi-0.dtd"
   xmlns:inkscape="http://www.inkscape.org/namespaces/inkscape"
   id="svg1451"
   sodipodi:version="0.32"
   inkscape:version="0.43"
   width="25.6pt"
   height="25.6pt"
   version="1.0"
   sodipodi:docbase="C:\Make\Projekt\svg\atribut"
   sodipodi:docname="atribut32.svg">
  <metadata
     id="metadata1456">
    <rdf:RDF>
      <cc:Work
         rdf:about="">
        <dc:format>image/svg+xml</dc:format>
        <dc:type
           rdf:resource="http://purl.org/dc/dcmitype/StillImage" />
      </cc:Work>
    </rdf:RDF>
  </metadata>
  <defs
     id="defs1454" />
  <sodipodi:namedview
     inkscape:window-height="749"
     inkscape:window-width="1024"
     inkscape:pageshadow="2"
     inkscape:pageopacity="0.0"
     borderopacity="1.0"
     bordercolor="#666666"
     pagecolor="#ffffff"
     id="base"
     inkscape:zoom="8"
     inkscape:cx="26.52682"
     inkscape:cy="9.0933878"
     inkscape:window-x="-4"
     inkscape:window-y="-4"
     inkscape:current-layer="svg1451" />
  <g
     id="g7155"
     transform="matrix(1,0,0,0.835604,-17.47298,-0.587714)">
    <rect
       width="10.006099"
       height="4.2405615"
       x="28.49695"
       y="1.5"
       style="opacity:1;fill:#ff0cda;fill-opacity:1;stroke:#000000;stroke-width:0.99694586;stroke-linecap:butt;stroke-linejoin:round;stroke-miterlimit:4;stroke-dasharray:none;stroke-opacity:1"
       id="rect2765" />
    <path
       sodipodi:nodetypes="cscccc"
       id="path1327"
       d="M 28.5,25.5 C 29.5,24.5 32.5,24.5 33.5,25.5 C 34.5,26.5 37.5,26.5 38.5,25.5 C 38.5,25.5625 38.5,38.5 38.5,38.5 L 28.5,38.5 L 28.5,25.5 z "
       style="fill:#f00000;fill-opacity:1;fill-rule:evenodd;stroke:#000000;stroke-width:1;stroke-linecap:butt;stroke-linejoin:round;stroke-miterlimit:4;stroke-dasharray:none;stroke-opacity:1" />
    <path
       sodipodi:nodetypes="csccscc"
       id="path2783"
       d="M 28.472222,23.25 C 29.472222,22.25 32.472222,22.25 33.472222,23.25 C 34.472222,24.25 37.472222,24.25 38.472222,23.25 C 38.472222,22.1875 38.534722,17.0625 38.472222,16.25 C 37.472222,15.25 34.472222,15.25 33.472222,16.25 C 32.472222,17.25 29.472222,17.25 28.472222,16.25 C 28.472222,17.25 28.409722,23.125 28.472222,23.25 z "
       style="fill:#4000f0;fill-opacity:1;fill-rule:evenodd;stroke:#000000;stroke-width:1;stroke-linecap:butt;stroke-linejoin:round;stroke-miterlimit:4;stroke-dasharray:none;stroke-opacity:1" />
    <path
       sodipodi:nodetypes="cscccc"
       id="path4237"
       d="M 28.5,13.5 C 29.5,14.5 32.5,14.5 33.5,13.5 C 34.5,12.5 37.5,12.5 38.5,13.5 C 38.5,13.4375 38.5,5.5 38.5,5.5 L 28.5,5.5 L 28.5,13.5 z "
       style="fill:#0bf000;fill-opacity:1;fill-rule:evenodd;stroke:#000000;stroke-width:1;stroke-linecap:butt;stroke-linejoin:round;stroke-miterlimit:4;stroke-dasharray:none;stroke-opacity:1" />
    <path
       d="M 28.84375,8.84375 L 38.84375,8.84375"
       style="fill:none;fill-opacity:0.75;fill-rule:evenodd;stroke:#000000;stroke-width:0.25pt;stroke-linecap:butt;stroke-linejoin:miter;stroke-opacity:1"
       id="path4949" />
    <path
       d="M 28.84375,11.84375 L 38.84375,11.84375"
       style="fill:none;fill-opacity:0.75;fill-rule:evenodd;stroke:#000000;stroke-width:0.25pt;stroke-linecap:butt;stroke-linejoin:miter;stroke-opacity:1"
       id="path4951" />
    <path
       d="M 28.84375,17.84375 L 38.84375,17.84375"
       style="fill:none;fill-opacity:0.75;fill-rule:evenodd;stroke:#000000;stroke-width:0.25pt;stroke-linecap:butt;stroke-linejoin:miter;stroke-opacity:1"
       id="path4955" />
    <path
       d="M 28.84375,20.84375 L 38.84375,20.84375"
       style="fill:none;fill-opacity:0.75;fill-rule:evenodd;stroke:#000000;stroke-width:0.25pt;stroke-linecap:butt;stroke-linejoin:miter;stroke-opacity:1"
       id="path4957" />
    <path
       d="M 28.84375,26.84375 L 38.84375,26.84375"
       style="fill:none;fill-opacity:0.75;fill-rule:evenodd;stroke:#000000;stroke-width:0.25pt;stroke-linecap:butt;stroke-linejoin:miter;stroke-opacity:1"
       id="path4961" />
    <path
       d="M 28.84375,29.84375 L 38.84375,29.84375"
       style="fill:none;fill-opacity:0.75;fill-rule:evenodd;stroke:#000000;stroke-width:0.25pt;stroke-linecap:butt;stroke-linejoin:miter;stroke-opacity:1"
       id="path4963" />
    <path
       d="M 28.84375,32.84375 L 38.84375,32.84375"
       style="fill:none;fill-opacity:0.75;fill-rule:evenodd;stroke:#000000;stroke-width:0.25pt;stroke-linecap:butt;stroke-linejoin:miter;stroke-opacity:1"
       id="path4965" />
    <path
       d="M 28.84375,35.84375 L 38.84375,35.84375"
       style="fill:none;fill-opacity:0.75;fill-rule:evenodd;stroke:#000000;stroke-width:0.25pt;stroke-linecap:butt;stroke-linejoin:miter;stroke-opacity:1"
       id="path4967" />
  </g>
</svg>
