<?xml version="1.0" encoding="UTF-8" standalone="no"?>
<!-- Created with Inkscape (http://www.inkscape.org/) -->
<svg
   xmlns:dc="http://purl.org/dc/elements/1.1/"
   xmlns:cc="http://web.resource.org/cc/"
   xmlns:rdf="http://www.w3.org/1999/02/22-rdf-syntax-ns#"
   xmlns:svg="http://www.w3.org/2000/svg"
   xmlns="http://www.w3.org/2000/svg"
   xmlns:sodipodi="http://inkscape.sourceforge.net/DTD/sodipodi-0.dtd"
   xmlns:inkscape="http://www.inkscape.org/namespaces/inkscape"
   width="32px"
   height="32px"
   id="svg1400"
   sodipodi:version="0.32"
   inkscape:version="0.43"
   sodipodi:docbase="C:\Make\Projekt\svg\booleanPC"
   sodipodi:docname="booleanPC.32svg.svg">
  <defs
     id="defs1402" />
  <sodipodi:namedview
     id="base"
     pagecolor="#ffffff"
     bordercolor="#666666"
     borderopacity="1.0"
     inkscape:pageopacity="0.0"
     inkscape:pageshadow="2"
     inkscape:zoom="11.197802"
     inkscape:cx="16"
     inkscape:cy="16"
     inkscape:current-layer="layer1"
     showgrid="true"
     inkscape:grid-bbox="true"
     inkscape:document-units="px"
     inkscape:window-width="1024"
     inkscape:window-height="749"
     inkscape:window-x="-4"
     inkscape:window-y="-4" />
  <metadata
     id="metadata1405">
    <rdf:RDF>
      <cc:Work
         rdf:about="">
        <dc:format>image/svg+xml</dc:format>
        <dc:type
           rdf:resource="http://purl.org/dc/dcmitype/StillImage" />
      </cc:Work>
    </rdf:RDF>
  </metadata>
  <g
     id="layer1"
     inkscape:label="Layer 1"
     inkscape:groupmode="layer">
    <g
       id="g7924"
       transform="matrix(0.85,0,0,0.85,-1.098706,-3.036202)">
      <path
         sodipodi:nodetypes="cscccc"
         id="path4237"
         d="M 26.498478,13.498473 C 27.498478,14.498473 30.498478,14.498473 31.498478,13.498473 C 32.498478,12.498473 35.498478,12.498473 36.498478,13.498473 C 36.498478,13.435973 36.498478,5.4984729 36.498478,5.4984729 L 26.498478,5.4984729 L 26.498478,13.498473 z "
         style="fill:#0bf000;fill-opacity:1;fill-rule:evenodd;stroke:#000000;stroke-width:1;stroke-linecap:butt;stroke-linejoin:round;stroke-miterlimit:4;stroke-dasharray:none;stroke-opacity:1" />
      <path
         d="M 26.842228,8.8422229 L 36.842228,8.8422229"
         style="fill:none;fill-opacity:0.75;fill-rule:evenodd;stroke:#000000;stroke-width:0.25pt;stroke-linecap:butt;stroke-linejoin:miter;stroke-opacity:1"
         id="path4949" />
      <path
         d="M 26.842228,11.842223 L 36.842228,11.842223"
         style="fill:none;fill-opacity:0.75;fill-rule:evenodd;stroke:#000000;stroke-width:0.25pt;stroke-linecap:butt;stroke-linejoin:miter;stroke-opacity:1"
         id="path4951" />
    </g>
    <g
       id="g7929"
       transform="matrix(0.85,0,0,0.85,-20.60148,-11.3237)">
      <path
         sodipodi:nodetypes="csccscc"
         id="path2783"
         d="M 26.4707,23.248473 C 27.4707,22.248473 30.4707,22.248473 31.4707,23.248473 C 32.4707,24.248473 35.4707,24.248473 36.4707,23.248473 C 36.4707,22.185973 36.5332,17.060973 36.4707,16.248473 C 35.4707,15.248473 32.4707,15.248473 31.4707,16.248473 C 30.4707,17.248473 27.4707,17.248473 26.4707,16.248473 C 26.4707,17.248473 26.4082,23.123473 26.4707,23.248473 z "
         style="fill:#4000f0;fill-opacity:1;fill-rule:evenodd;stroke:#000000;stroke-width:1;stroke-linecap:butt;stroke-linejoin:round;stroke-miterlimit:4;stroke-dasharray:none;stroke-opacity:1" />
      <path
         d="M 26.842228,17.842223 L 36.842228,17.842223"
         style="fill:none;fill-opacity:0.75;fill-rule:evenodd;stroke:#000000;stroke-width:0.25pt;stroke-linecap:butt;stroke-linejoin:miter;stroke-opacity:1"
         id="path4955" />
      <path
         d="M 26.842228,20.842223 L 36.842228,20.842223"
         style="fill:none;fill-opacity:0.75;fill-rule:evenodd;stroke:#000000;stroke-width:0.25pt;stroke-linecap:butt;stroke-linejoin:miter;stroke-opacity:1"
         id="path4957" />
    </g>
    <g
       id="g7934"
       transform="matrix(0.85,0,0,0.85,-1.098706,-2.611202)">
      <path
         sodipodi:nodetypes="cscccc"
         id="path1327"
         d="M 26.498478,25.498473 C 27.498478,24.498473 30.498478,24.498473 31.498478,25.498473 C 32.498478,26.498473 35.498478,26.498473 36.498478,25.498473 C 36.498478,25.560973 36.498478,38.498473 36.498478,38.498473 L 26.498478,38.498473 L 26.498478,25.498473 z "
         style="fill:#f00000;fill-opacity:1;fill-rule:evenodd;stroke:#000000;stroke-width:1;stroke-linecap:butt;stroke-linejoin:round;stroke-miterlimit:4;stroke-dasharray:none;stroke-opacity:1" />
      <path
         d="M 26.842228,26.842223 L 36.842228,26.842223"
         style="fill:none;fill-opacity:0.75;fill-rule:evenodd;stroke:#000000;stroke-width:0.25pt;stroke-linecap:butt;stroke-linejoin:miter;stroke-opacity:1"
         id="path4961" />
      <path
         d="M 26.842228,29.842223 L 36.842228,29.842223"
         style="fill:none;fill-opacity:0.75;fill-rule:evenodd;stroke:#000000;stroke-width:0.25pt;stroke-linecap:butt;stroke-linejoin:miter;stroke-opacity:1"
         id="path4963" />
      <path
         d="M 26.842228,32.842223 L 36.842228,32.842223"
         style="fill:none;fill-opacity:0.75;fill-rule:evenodd;stroke:#000000;stroke-width:0.25pt;stroke-linecap:butt;stroke-linejoin:miter;stroke-opacity:1"
         id="path4965" />
      <path
         d="M 26.842228,35.842223 L 36.842228,35.842223"
         style="fill:none;fill-opacity:0.75;fill-rule:evenodd;stroke:#000000;stroke-width:0.25pt;stroke-linecap:butt;stroke-linejoin:miter;stroke-opacity:1"
         id="path4967" />
    </g>
    <path
       style="fill:none;fill-opacity:0.75;fill-rule:evenodd;stroke:#000000;stroke-width:1.52879202;stroke-linecap:round;stroke-linejoin:round;stroke-miterlimit:4;stroke-dasharray:none;stroke-opacity:1"
       d="M 12.352164,19.670439 L 15.868884,7.714394 L 19.385604,19.670439"
       id="path8697" />
    <g
       id="g10153"
       transform="matrix(0.85,0,0,0.85,-20.60148,7.376299)">
      <path
         sodipodi:nodetypes="csccscc"
         id="path10155"
         d="M 26.4707,23.248473 C 27.4707,22.248473 30.4707,22.248473 31.4707,23.248473 C 32.4707,24.248473 35.4707,24.248473 36.4707,23.248473 C 36.4707,22.185973 36.5332,17.060973 36.4707,16.248473 C 35.4707,15.248473 32.4707,15.248473 31.4707,16.248473 C 30.4707,17.248473 27.4707,17.248473 26.4707,16.248473 C 26.4707,17.248473 26.4082,23.123473 26.4707,23.248473 z "
         style="fill:#4000f0;fill-opacity:1;fill-rule:evenodd;stroke:#000000;stroke-width:1;stroke-linecap:butt;stroke-linejoin:round;stroke-miterlimit:4;stroke-dasharray:none;stroke-opacity:1" />
      <path
         d="M 26.842228,17.842223 L 36.842228,17.842223"
         style="fill:none;fill-opacity:0.75;fill-rule:evenodd;stroke:#000000;stroke-width:0.25pt;stroke-linecap:butt;stroke-linejoin:miter;stroke-opacity:1"
         id="path10157" />
      <path
         d="M 26.842228,20.842223 L 36.842228,20.842223"
         style="fill:none;fill-opacity:0.75;fill-rule:evenodd;stroke:#000000;stroke-width:0.25pt;stroke-linecap:butt;stroke-linejoin:miter;stroke-opacity:1"
         id="path10159" />
    </g>
  </g>
</svg>
