<?xml version="1.0" encoding="UTF-8" standalone="no"?>
<!-- Created with Inkscape (http://www.inkscape.org/) -->
<svg
   xmlns:dc="http://purl.org/dc/elements/1.1/"
   xmlns:cc="http://web.resource.org/cc/"
   xmlns:rdf="http://www.w3.org/1999/02/22-rdf-syntax-ns#"
   xmlns:svg="http://www.w3.org/2000/svg"
   xmlns="http://www.w3.org/2000/svg"
   xmlns:sodipodi="http://inkscape.sourceforge.net/DTD/sodipodi-0.dtd"
   xmlns:inkscape="http://www.inkscape.org/namespaces/inkscape"
   width="32px"
   height="32px"
   id="svg2051"
   sodipodi:version="0.32"
   inkscape:version="0.43"
   sodipodi:docbase="C:\Make\Projekt\svg\ekvivalence"
   sodipodi:docname="ekvivalence32.svg">
  <defs
     id="defs2053" />
  <sodipodi:namedview
     id="base"
     pagecolor="#ffffff"
     bordercolor="#666666"
     borderopacity="1.0"
     inkscape:pageopacity="0.0"
     inkscape:pageshadow="2"
     inkscape:zoom="11.197802"
     inkscape:cx="16"
     inkscape:cy="16"
     inkscape:current-layer="layer1"
     showgrid="true"
     inkscape:grid-bbox="true"
     inkscape:document-units="px"
     inkscape:window-width="767"
     inkscape:window-height="540"
     inkscape:window-x="44"
     inkscape:window-y="44" />
  <metadata
     id="metadata2056">
    <rdf:RDF>
      <cc:Work
         rdf:about="">
        <dc:format>image/svg+xml</dc:format>
        <dc:type
           rdf:resource="http://purl.org/dc/dcmitype/StillImage" />
      </cc:Work>
    </rdf:RDF>
  </metadata>
  <g
     id="layer1"
     inkscape:label="Layer 1"
     inkscape:groupmode="layer">
    <g
       id="g7155"
       transform="matrix(0.82,0,0,0.82,-21.21569,-0.12)">
      <rect
         width="10.006099"
         height="4.2405615"
         x="28.49695"
         y="1.5"
         style="opacity:1;fill:#ff0cda;fill-opacity:1;stroke:#000000;stroke-width:0.99694586;stroke-linecap:butt;stroke-linejoin:round;stroke-miterlimit:4;stroke-dasharray:none;stroke-opacity:1"
         id="rect2765" />
      <path
         sodipodi:nodetypes="cscccc"
         id="path1327"
         d="M 28.5,25.5 C 29.5,24.5 32.5,24.5 33.5,25.5 C 34.5,26.5 37.5,26.5 38.5,25.5 C 38.5,25.5625 38.5,38.5 38.5,38.5 L 28.5,38.5 L 28.5,25.5 z "
         style="fill:#f00000;fill-opacity:1;fill-rule:evenodd;stroke:#000000;stroke-width:1;stroke-linecap:butt;stroke-linejoin:round;stroke-miterlimit:4;stroke-dasharray:none;stroke-opacity:1" />
      <path
         sodipodi:nodetypes="csccscc"
         id="path2783"
         d="M 28.472222,23.25 C 29.472222,22.25 32.472222,22.25 33.472222,23.25 C 34.472222,24.25 37.472222,24.25 38.472222,23.25 C 38.472222,22.1875 38.534722,17.0625 38.472222,16.25 C 37.472222,15.25 34.472222,15.25 33.472222,16.25 C 32.472222,17.25 29.472222,17.25 28.472222,16.25 C 28.472222,17.25 28.409722,23.125 28.472222,23.25 z "
         style="fill:#4000f0;fill-opacity:1;fill-rule:evenodd;stroke:#000000;stroke-width:1;stroke-linecap:butt;stroke-linejoin:round;stroke-miterlimit:4;stroke-dasharray:none;stroke-opacity:1" />
      <path
         sodipodi:nodetypes="cscccc"
         id="path4237"
         d="M 28.5,13.5 C 29.5,14.5 32.5,14.5 33.5,13.5 C 34.5,12.5 37.5,12.5 38.5,13.5 C 38.5,13.4375 38.5,5.5 38.5,5.5 L 28.5,5.5 L 28.5,13.5 z "
         style="fill:#0bf000;fill-opacity:1;fill-rule:evenodd;stroke:#000000;stroke-width:1;stroke-linecap:butt;stroke-linejoin:round;stroke-miterlimit:4;stroke-dasharray:none;stroke-opacity:1" />
      <path
         d="M 28.84375,8.84375 L 38.84375,8.84375"
         style="fill:none;fill-opacity:0.75;fill-rule:evenodd;stroke:#000000;stroke-width:0.25pt;stroke-linecap:butt;stroke-linejoin:miter;stroke-opacity:1"
         id="path4949" />
      <path
         d="M 28.84375,11.84375 L 38.84375,11.84375"
         style="fill:none;fill-opacity:0.75;fill-rule:evenodd;stroke:#000000;stroke-width:0.25pt;stroke-linecap:butt;stroke-linejoin:miter;stroke-opacity:1"
         id="path4951" />
      <path
         d="M 28.84375,17.84375 L 38.84375,17.84375"
         style="fill:none;fill-opacity:0.75;fill-rule:evenodd;stroke:#000000;stroke-width:0.25pt;stroke-linecap:butt;stroke-linejoin:miter;stroke-opacity:1"
         id="path4955" />
      <path
         d="M 28.84375,20.84375 L 38.84375,20.84375"
         style="fill:none;fill-opacity:0.75;fill-rule:evenodd;stroke:#000000;stroke-width:0.25pt;stroke-linecap:butt;stroke-linejoin:miter;stroke-opacity:1"
         id="path4957" />
      <path
         d="M 28.84375,26.84375 L 38.84375,26.84375"
         style="fill:none;fill-opacity:0.75;fill-rule:evenodd;stroke:#000000;stroke-width:0.25pt;stroke-linecap:butt;stroke-linejoin:miter;stroke-opacity:1"
         id="path4961" />
      <path
         d="M 28.84375,29.84375 L 38.84375,29.84375"
         style="fill:none;fill-opacity:0.75;fill-rule:evenodd;stroke:#000000;stroke-width:0.25pt;stroke-linecap:butt;stroke-linejoin:miter;stroke-opacity:1"
         id="path4963" />
      <path
         d="M 28.84375,32.84375 L 38.84375,32.84375"
         style="fill:none;fill-opacity:0.75;fill-rule:evenodd;stroke:#000000;stroke-width:0.25pt;stroke-linecap:butt;stroke-linejoin:miter;stroke-opacity:1"
         id="path4965" />
      <path
         d="M 28.84375,35.84375 L 38.84375,35.84375"
         style="fill:none;fill-opacity:0.75;fill-rule:evenodd;stroke:#000000;stroke-width:0.25pt;stroke-linecap:butt;stroke-linejoin:miter;stroke-opacity:1"
         id="path4967" />
    </g>
    <g
       id="g1322"
       transform="matrix(0.82,0,0,0.82,-2.355694,-0.12)">
      <rect
         width="10.006099"
         height="4.2405615"
         x="28.49695"
         y="1.5"
         style="opacity:1;fill:#ff0cda;fill-opacity:1;stroke:#000000;stroke-width:0.99694586;stroke-linecap:butt;stroke-linejoin:round;stroke-miterlimit:4;stroke-dasharray:none;stroke-opacity:1"
         id="rect1324" />
      <path
         sodipodi:nodetypes="cscccc"
         id="path1326"
         d="M 28.5,25.5 C 29.5,24.5 32.5,24.5 33.5,25.5 C 34.5,26.5 37.5,26.5 38.5,25.5 C 38.5,25.5625 38.5,38.5 38.5,38.5 L 28.5,38.5 L 28.5,25.5 z "
         style="fill:#f00000;fill-opacity:1;fill-rule:evenodd;stroke:#000000;stroke-width:1;stroke-linecap:butt;stroke-linejoin:round;stroke-miterlimit:4;stroke-dasharray:none;stroke-opacity:1" />
      <path
         sodipodi:nodetypes="csccscc"
         id="path1328"
         d="M 28.472222,23.25 C 29.472222,22.25 32.472222,22.25 33.472222,23.25 C 34.472222,24.25 37.472222,24.25 38.472222,23.25 C 38.472222,22.1875 38.534722,17.0625 38.472222,16.25 C 37.472222,15.25 34.472222,15.25 33.472222,16.25 C 32.472222,17.25 29.472222,17.25 28.472222,16.25 C 28.472222,17.25 28.409722,23.125 28.472222,23.25 z "
         style="fill:#4000f0;fill-opacity:1;fill-rule:evenodd;stroke:#000000;stroke-width:1;stroke-linecap:butt;stroke-linejoin:round;stroke-miterlimit:4;stroke-dasharray:none;stroke-opacity:1" />
      <path
         sodipodi:nodetypes="cscccc"
         id="path1330"
         d="M 28.5,13.5 C 29.5,14.5 32.5,14.5 33.5,13.5 C 34.5,12.5 37.5,12.5 38.5,13.5 C 38.5,13.4375 38.5,5.5 38.5,5.5 L 28.5,5.5 L 28.5,13.5 z "
         style="fill:#0bf000;fill-opacity:1;fill-rule:evenodd;stroke:#000000;stroke-width:1;stroke-linecap:butt;stroke-linejoin:round;stroke-miterlimit:4;stroke-dasharray:none;stroke-opacity:1" />
      <path
         d="M 28.84375,8.84375 L 38.84375,8.84375"
         style="fill:none;fill-opacity:0.75;fill-rule:evenodd;stroke:#000000;stroke-width:0.25pt;stroke-linecap:butt;stroke-linejoin:miter;stroke-opacity:1"
         id="path1332" />
      <path
         d="M 28.84375,11.84375 L 38.84375,11.84375"
         style="fill:none;fill-opacity:0.75;fill-rule:evenodd;stroke:#000000;stroke-width:0.25pt;stroke-linecap:butt;stroke-linejoin:miter;stroke-opacity:1"
         id="path1334" />
      <path
         d="M 28.84375,17.84375 L 38.84375,17.84375"
         style="fill:none;fill-opacity:0.75;fill-rule:evenodd;stroke:#000000;stroke-width:0.25pt;stroke-linecap:butt;stroke-linejoin:miter;stroke-opacity:1"
         id="path1336" />
      <path
         d="M 28.84375,20.84375 L 38.84375,20.84375"
         style="fill:none;fill-opacity:0.75;fill-rule:evenodd;stroke:#000000;stroke-width:0.25pt;stroke-linecap:butt;stroke-linejoin:miter;stroke-opacity:1"
         id="path1338" />
      <path
         d="M 28.84375,26.84375 L 38.84375,26.84375"
         style="fill:none;fill-opacity:0.75;fill-rule:evenodd;stroke:#000000;stroke-width:0.25pt;stroke-linecap:butt;stroke-linejoin:miter;stroke-opacity:1"
         id="path1340" />
      <path
         d="M 28.84375,29.84375 L 38.84375,29.84375"
         style="fill:none;fill-opacity:0.75;fill-rule:evenodd;stroke:#000000;stroke-width:0.25pt;stroke-linecap:butt;stroke-linejoin:miter;stroke-opacity:1"
         id="path1342" />
      <path
         d="M 28.84375,32.84375 L 38.84375,32.84375"
         style="fill:none;fill-opacity:0.75;fill-rule:evenodd;stroke:#000000;stroke-width:0.25pt;stroke-linecap:butt;stroke-linejoin:miter;stroke-opacity:1"
         id="path1344" />
      <path
         d="M 28.84375,35.84375 L 38.84375,35.84375"
         style="fill:none;fill-opacity:0.75;fill-rule:evenodd;stroke:#000000;stroke-width:0.25pt;stroke-linecap:butt;stroke-linejoin:miter;stroke-opacity:1"
         id="path1346" />
    </g>
    <g
       id="g2086"
       transform="matrix(0.82,0,0,0.82,-0.71,1.11)">
      <path
         id="path1352"
         d="M 16,15 L 24,15"
         style="fill:none;fill-opacity:0.75;fill-rule:evenodd;stroke:#000000;stroke-width:1;stroke-linecap:round;stroke-linejoin:miter;stroke-miterlimit:4;stroke-dasharray:none;stroke-opacity:1" />
      <path
         id="path1354"
         d="M 16,18 L 24,18"
         style="fill:none;fill-opacity:0.75;fill-rule:evenodd;stroke:#000000;stroke-width:1;stroke-linecap:round;stroke-linejoin:miter;stroke-miterlimit:4;stroke-dasharray:none;stroke-opacity:1" />
      <path
         id="path1356"
         d="M 16,21 L 24,21"
         style="fill:none;fill-opacity:0.75;fill-rule:evenodd;stroke:#000000;stroke-width:1;stroke-linecap:round;stroke-linejoin:miter;stroke-miterlimit:4;stroke-dasharray:none;stroke-opacity:1" />
    </g>
  </g>
</svg>
