<?xml version="1.0" encoding="UTF-8" standalone="no"?>
<!-- Created with Inkscape (http://www.inkscape.org/) -->
<svg
   xmlns:dc="http://purl.org/dc/elements/1.1/"
   xmlns:cc="http://web.resource.org/cc/"
   xmlns:rdf="http://www.w3.org/1999/02/22-rdf-syntax-ns#"
   xmlns:svg="http://www.w3.org/2000/svg"
   xmlns="http://www.w3.org/2000/svg"
   xmlns:sodipodi="http://inkscape.sourceforge.net/DTD/sodipodi-0.dtd"
   xmlns:inkscape="http://www.inkscape.org/namespaces/inkscape"
   width="32px"
   height="32px"
   id="svg1390"
   sodipodi:version="0.32"
   inkscape:version="0.43"
   sodipodi:docbase="C:\Make\Projekt\svg\atributFrekvence"
   sodipodi:docname="atributFrekvence32.svg">
  <defs
     id="defs1392" />
  <sodipodi:namedview
     id="base"
     pagecolor="#ffffff"
     bordercolor="#666666"
     borderopacity="1.0"
     inkscape:pageopacity="0.0"
     inkscape:pageshadow="2"
     inkscape:zoom="11.197802"
     inkscape:cx="16"
     inkscape:cy="16"
     inkscape:current-layer="layer1"
     showgrid="true"
     inkscape:grid-bbox="true"
     inkscape:document-units="px"
     inkscape:window-width="1024"
     inkscape:window-height="749"
     inkscape:window-x="-4"
     inkscape:window-y="-4" />
  <metadata
     id="metadata1395">
    <rdf:RDF>
      <cc:Work
         rdf:about="">
        <dc:format>image/svg+xml</dc:format>
        <dc:type
           rdf:resource="http://purl.org/dc/dcmitype/StillImage" />
      </cc:Work>
    </rdf:RDF>
  </metadata>
  <g
     id="layer1"
     inkscape:label="Layer 1"
     inkscape:groupmode="layer">
    <g
       id="g7155"
       transform="matrix(0.83,0,0,0.83,-2.524687,-0.831267)">
      <rect
         width="10.006099"
         height="4.2405615"
         x="28.49695"
         y="1.5"
         style="opacity:1;fill:#ff0cda;fill-opacity:1;stroke:#000000;stroke-width:0.99694586;stroke-linecap:butt;stroke-linejoin:round;stroke-miterlimit:4;stroke-dasharray:none;stroke-opacity:1"
         id="rect2765" />
      <path
         sodipodi:nodetypes="cscccc"
         id="path1327"
         d="M 28.5,25.5 C 29.5,24.5 32.5,24.5 33.5,25.5 C 34.5,26.5 37.5,26.5 38.5,25.5 C 38.5,25.5625 38.5,38.5 38.5,38.5 L 28.5,38.5 L 28.5,25.5 z "
         style="fill:#f00000;fill-opacity:1;fill-rule:evenodd;stroke:#000000;stroke-width:1;stroke-linecap:butt;stroke-linejoin:round;stroke-miterlimit:4;stroke-dasharray:none;stroke-opacity:1" />
      <path
         sodipodi:nodetypes="csccscc"
         id="path2783"
         d="M 28.472222,23.25 C 29.472222,22.25 32.472222,22.25 33.472222,23.25 C 34.472222,24.25 37.472222,24.25 38.472222,23.25 C 38.472222,22.1875 38.534722,17.0625 38.472222,16.25 C 37.472222,15.25 34.472222,15.25 33.472222,16.25 C 32.472222,17.25 29.472222,17.25 28.472222,16.25 C 28.472222,17.25 28.409722,23.125 28.472222,23.25 z "
         style="fill:#4000f0;fill-opacity:1;fill-rule:evenodd;stroke:#000000;stroke-width:1;stroke-linecap:butt;stroke-linejoin:round;stroke-miterlimit:4;stroke-dasharray:none;stroke-opacity:1" />
      <path
         sodipodi:nodetypes="cscccc"
         id="path4237"
         d="M 28.5,13.5 C 29.5,14.5 32.5,14.5 33.5,13.5 C 34.5,12.5 37.5,12.5 38.5,13.5 C 38.5,13.4375 38.5,5.5 38.5,5.5 L 28.5,5.5 L 28.5,13.5 z "
         style="fill:#0bf000;fill-opacity:1;fill-rule:evenodd;stroke:#000000;stroke-width:1;stroke-linecap:butt;stroke-linejoin:round;stroke-miterlimit:4;stroke-dasharray:none;stroke-opacity:1" />
      <path
         d="M 28.84375,8.84375 L 38.84375,8.84375"
         style="fill:none;fill-opacity:0.75;fill-rule:evenodd;stroke:#000000;stroke-width:0.25pt;stroke-linecap:butt;stroke-linejoin:miter;stroke-opacity:1"
         id="path4949" />
      <path
         d="M 28.84375,11.84375 L 38.84375,11.84375"
         style="fill:none;fill-opacity:0.75;fill-rule:evenodd;stroke:#000000;stroke-width:0.25pt;stroke-linecap:butt;stroke-linejoin:miter;stroke-opacity:1"
         id="path4951" />
      <path
         d="M 28.84375,17.84375 L 38.84375,17.84375"
         style="fill:none;fill-opacity:0.75;fill-rule:evenodd;stroke:#000000;stroke-width:0.25pt;stroke-linecap:butt;stroke-linejoin:miter;stroke-opacity:1"
         id="path4955" />
      <path
         d="M 28.84375,20.84375 L 38.84375,20.84375"
         style="fill:none;fill-opacity:0.75;fill-rule:evenodd;stroke:#000000;stroke-width:0.25pt;stroke-linecap:butt;stroke-linejoin:miter;stroke-opacity:1"
         id="path4957" />
      <path
         d="M 28.84375,26.84375 L 38.84375,26.84375"
         style="fill:none;fill-opacity:0.75;fill-rule:evenodd;stroke:#000000;stroke-width:0.25pt;stroke-linecap:butt;stroke-linejoin:miter;stroke-opacity:1"
         id="path4961" />
      <path
         d="M 28.84375,29.84375 L 38.84375,29.84375"
         style="fill:none;fill-opacity:0.75;fill-rule:evenodd;stroke:#000000;stroke-width:0.25pt;stroke-linecap:butt;stroke-linejoin:miter;stroke-opacity:1"
         id="path4963" />
      <path
         d="M 28.84375,32.84375 L 38.84375,32.84375"
         style="fill:none;fill-opacity:0.75;fill-rule:evenodd;stroke:#000000;stroke-width:0.25pt;stroke-linecap:butt;stroke-linejoin:miter;stroke-opacity:1"
         id="path4965" />
      <path
         d="M 28.84375,35.84375 L 38.84375,35.84375"
         style="fill:none;fill-opacity:0.75;fill-rule:evenodd;stroke:#000000;stroke-width:0.25pt;stroke-linecap:butt;stroke-linejoin:miter;stroke-opacity:1"
         id="path4967" />
    </g>
    <path
       sodipodi:type="spiral"
       style="fill:none;fill-opacity:0.75;fill-rule:evenodd;stroke:#000000;stroke-width:1pt;stroke-linecap:butt;stroke-linejoin:miter;stroke-opacity:1"
       id="path7906"
       sodipodi:cx="10.0625"
       sodipodi:cy="20"
       sodipodi:expansion="1"
       sodipodi:revolution="3"
       sodipodi:radius="11.017741"
       sodipodi:argument="-18.416355"
       sodipodi:t0="0"
       d="M 10.0625,20 C 10.563884,20.23189 9.9972815,20.790262 9.6770828,20.833333 C 8.8093643,20.950053 8.3027374,19.969864 8.3958338,19.229166 C 8.5623614,17.90423 10.009413,17.224363 11.218752,17.500001 C 12.993505,17.90451 13.867588,19.872019 13.395832,21.541669 C 12.767056,23.767049 10.26266,24.840017 8.1354141,24.166665 C 5.4584926,23.319321 4.1847828,20.271104 5.0625015,17.687497 C 6.1255365,14.558403 9.7211359,13.082989 12.76042,14.166668 C 16.342112,15.443747 18.019803,19.5888 16.729165,23.083337 C 15.239072,27.117919 10.543253,28.998261 6.5937454,27.499998 C 2.106064,25.797575 0.022813824,20.550106 1.7291692,16.145828 C 3.643442,11.204894 9.4431867,8.9185499 14.302089,10.833336 C 19.696391,12.959112 22.185968,19.31159 20.062497,24.625006"
       transform="matrix(0.83,0,0,0.83,1.202403,-0.443415)" />
  </g>
</svg>
