<?xml version="1.0" encoding="UTF-8" standalone="no"?>
<!-- Created with Inkscape (http://www.inkscape.org/) -->
<svg
   xmlns:dc="http://purl.org/dc/elements/1.1/"
   xmlns:cc="http://web.resource.org/cc/"
   xmlns:rdf="http://www.w3.org/1999/02/22-rdf-syntax-ns#"
   xmlns:svg="http://www.w3.org/2000/svg"
   xmlns="http://www.w3.org/2000/svg"
   xmlns:sodipodi="http://inkscape.sourceforge.net/DTD/sodipodi-0.dtd"
   xmlns:inkscape="http://www.inkscape.org/namespaces/inkscape"
   id="svg1398"
   sodipodi:version="0.32"
   inkscape:version="0.43"
   width="32"
   height="32"
   version="1.0"
   sodipodi:docbase="D:\Make\Projekt\svg\categorial cedent"
   sodipodi:docname="design.svg"
   inkscape:export-filename="D:\Make\Projekt\svg\categorial cedent\design.png"
   inkscape:export-xdpi="90"
   inkscape:export-ydpi="90">
  <metadata
     id="metadata1403">
    <rdf:RDF>
      <cc:Work
         rdf:about="">
        <dc:format>image/svg+xml</dc:format>
        <dc:type
           rdf:resource="http://purl.org/dc/dcmitype/StillImage" />
      </cc:Work>
    </rdf:RDF>
  </metadata>
  <defs
     id="defs1401" />
  <sodipodi:namedview
     inkscape:window-height="749"
     inkscape:window-width="1024"
     inkscape:pageshadow="2"
     inkscape:pageopacity="0.0"
     borderopacity="1.0"
     bordercolor="#666666"
     pagecolor="#ffffff"
     id="base"
     inkscape:zoom="17.266077"
     inkscape:cx="19.166659"
     inkscape:cy="15.726784"
     inkscape:window-x="261"
     inkscape:window-y="23"
     inkscape:current-layer="svg1398" />
  <g
     id="g7924"
     transform="translate(-25.77458,-4.753767)">
    <path
       sodipodi:nodetypes="cscccc"
       id="path4237"
       d="M 26.498478,13.498473 C 27.498478,14.498473 30.498478,14.498473 31.498478,13.498473 C 32.498478,12.498473 35.498478,12.498473 36.498478,13.498473 C 36.498478,13.435973 36.498478,5.4984729 36.498478,5.4984729 L 26.498478,5.4984729 L 26.498478,13.498473 z "
       style="fill:#0bf000;fill-opacity:1;fill-rule:evenodd;stroke:#000000;stroke-width:1;stroke-linecap:butt;stroke-linejoin:round;stroke-miterlimit:4;stroke-dasharray:none;stroke-opacity:1" />
    <path
       d="M 26.842228,8.8422229 L 36.842228,8.8422229"
       style="fill:none;fill-opacity:0.75;fill-rule:evenodd;stroke:#000000;stroke-width:0.25pt;stroke-linecap:butt;stroke-linejoin:miter;stroke-opacity:1"
       id="path4949" />
    <path
       d="M 26.842228,11.842223 L 36.842228,11.842223"
       style="fill:none;fill-opacity:0.75;fill-rule:evenodd;stroke:#000000;stroke-width:0.25pt;stroke-linecap:butt;stroke-linejoin:miter;stroke-opacity:1"
       id="path4951" />
  </g>
  <g
     id="g7929"
     transform="translate(-18.81667,-5.927813)">
    <path
       sodipodi:nodetypes="csccscc"
       id="path2783"
       d="M 26.4707,23.248473 C 27.4707,22.248473 30.4707,22.248473 31.4707,23.248473 C 32.4707,24.248473 35.4707,24.248473 36.4707,23.248473 C 36.4707,22.185973 36.5332,17.060973 36.4707,16.248473 C 35.4707,15.248473 32.4707,15.248473 31.4707,16.248473 C 30.4707,17.248473 27.4707,17.248473 26.4707,16.248473 C 26.4707,17.248473 26.4082,23.123473 26.4707,23.248473 z "
       style="fill:#4000f0;fill-opacity:1;fill-rule:evenodd;stroke:#000000;stroke-width:1;stroke-linecap:butt;stroke-linejoin:round;stroke-miterlimit:4;stroke-dasharray:none;stroke-opacity:1" />
    <path
       d="M 26.842228,17.842223 L 36.842228,17.842223"
       style="fill:none;fill-opacity:0.75;fill-rule:evenodd;stroke:#000000;stroke-width:0.25pt;stroke-linecap:butt;stroke-linejoin:miter;stroke-opacity:1"
       id="path4955" />
    <path
       d="M 26.842228,20.842223 L 36.842228,20.842223"
       style="fill:none;fill-opacity:0.75;fill-rule:evenodd;stroke:#000000;stroke-width:0.25pt;stroke-linecap:butt;stroke-linejoin:miter;stroke-opacity:1"
       id="path4957" />
  </g>
  <g
     id="g7934"
     transform="translate(-6.236771,-23.66664)">
    <path
       sodipodi:nodetypes="cscccc"
       id="path1327"
       d="M 26.498478,25.498473 C 27.498478,24.498473 30.498478,24.498473 31.498478,25.498473 C 32.498478,26.498473 35.498478,26.498473 36.498478,25.498473 C 36.498478,25.560973 36.498478,38.498473 36.498478,38.498473 L 26.498478,38.498473 L 26.498478,25.498473 z "
       style="fill:#f00000;fill-opacity:1;fill-rule:evenodd;stroke:#000000;stroke-width:1;stroke-linecap:butt;stroke-linejoin:round;stroke-miterlimit:4;stroke-dasharray:none;stroke-opacity:1" />
    <path
       d="M 26.842228,26.842223 L 36.842228,26.842223"
       style="fill:none;fill-opacity:0.75;fill-rule:evenodd;stroke:#000000;stroke-width:0.25pt;stroke-linecap:butt;stroke-linejoin:miter;stroke-opacity:1"
       id="path4961" />
    <path
       d="M 26.842228,29.842223 L 36.842228,29.842223"
       style="fill:none;fill-opacity:0.75;fill-rule:evenodd;stroke:#000000;stroke-width:0.25pt;stroke-linecap:butt;stroke-linejoin:miter;stroke-opacity:1"
       id="path4963" />
    <path
       d="M 26.842228,32.842223 L 36.842228,32.842223"
       style="fill:none;fill-opacity:0.75;fill-rule:evenodd;stroke:#000000;stroke-width:0.25pt;stroke-linecap:butt;stroke-linejoin:miter;stroke-opacity:1"
       id="path4965" />
    <path
       d="M 26.842228,35.842223 L 36.842228,35.842223"
       style="fill:none;fill-opacity:0.75;fill-rule:evenodd;stroke:#000000;stroke-width:0.25pt;stroke-linecap:butt;stroke-linejoin:miter;stroke-opacity:1"
       id="path4967" />
  </g>
  <g
     id="g1581"
     transform="translate(-10.91015,3.563971)">
    <path
       sodipodi:nodetypes="csccscc"
       id="path1583"
       d="M 26.4707,23.248473 C 27.4707,22.248473 30.4707,22.248473 31.4707,23.248473 C 32.4707,24.248473 35.4707,24.248473 36.4707,23.248473 C 36.4707,22.185973 36.5332,17.060973 36.4707,16.248473 C 35.4707,15.248473 32.4707,15.248473 31.4707,16.248473 C 30.4707,17.248473 27.4707,17.248473 26.4707,16.248473 C 26.4707,17.248473 26.4082,23.123473 26.4707,23.248473 z "
       style="fill:#4000f0;fill-opacity:1;fill-rule:evenodd;stroke:#000000;stroke-width:1;stroke-linecap:butt;stroke-linejoin:round;stroke-miterlimit:4;stroke-dasharray:none;stroke-opacity:1" />
    <path
       d="M 26.842228,17.842223 L 36.842228,17.842223"
       style="fill:none;fill-opacity:0.75;fill-rule:evenodd;stroke:#000000;stroke-width:0.25pt;stroke-linecap:butt;stroke-linejoin:miter;stroke-opacity:1"
       id="path1585" />
    <path
       d="M 26.842228,20.842223 L 36.842228,20.842223"
       style="fill:none;fill-opacity:0.75;fill-rule:evenodd;stroke:#000000;stroke-width:0.25pt;stroke-linecap:butt;stroke-linejoin:miter;stroke-opacity:1"
       id="path1587" />
  </g>
  <g
     id="g1589"
     transform="translate(-25.24344,15.52399)">
    <path
       sodipodi:nodetypes="cscccc"
       id="path1591"
       d="M 26.498478,13.498473 C 27.498478,14.498473 30.498478,14.498473 31.498478,13.498473 C 32.498478,12.498473 35.498478,12.498473 36.498478,13.498473 C 36.498478,13.435973 36.498478,5.4984729 36.498478,5.4984729 L 26.498478,5.4984729 L 26.498478,13.498473 z "
       style="fill:#0bf000;fill-opacity:1;fill-rule:evenodd;stroke:#000000;stroke-width:1;stroke-linecap:butt;stroke-linejoin:round;stroke-miterlimit:4;stroke-dasharray:none;stroke-opacity:1" />
    <path
       d="M 26.842228,8.8422229 L 36.842228,8.8422229"
       style="fill:none;fill-opacity:0.75;fill-rule:evenodd;stroke:#000000;stroke-width:0.25pt;stroke-linecap:butt;stroke-linejoin:miter;stroke-opacity:1"
       id="path1593" />
    <path
       d="M 26.842228,11.842223 L 36.842228,11.842223"
       style="fill:none;fill-opacity:0.75;fill-rule:evenodd;stroke:#000000;stroke-width:0.25pt;stroke-linecap:butt;stroke-linejoin:miter;stroke-opacity:1"
       id="path1595" />
  </g>
</svg>
